<svg width="400" height="300" viewBox="0 0 400 300" xmlns="http://www.w3.org/2000/svg">
  <rect width="100%" height="100%" fill="#57606f"/>
  <polygon points="50,220 120,80 350,80 280,220" fill="#747d8c" stroke="#a4b0be" stroke-width="4"/>
  <polygon points="100,180 145,95 305,95 260,180" fill="#2f3542" stroke="#57606f" stroke-width="2"/>
  <g transform="translate(100, 180)">
    <rect x="-10" y="-15" width="20" height="15" fill="#b2bec3" stroke="#2d3436" stroke-width="1.5"/>
    <circle cx="0" cy="-15" r="8" fill="#dfe6e9" stroke="#2d3436"/>
    <line x1="0" y1="-15" x2="0" y2="-25" stroke="#b2bec3" stroke-width="4"/>
  </g>
  <g transform="translate(260, 180)">
    <rect x="-10" y="-15" width="20" height="15" fill="#b2bec3" stroke="#2d3436" stroke-width="1.5"/>
    <circle cx="0" cy="-15" r="8" fill="#dfe6e9" stroke="#2d3436"/>
    <line x1="0" y1="-15" x2="0" y2="-25" stroke="#b2bec3" stroke-width="4"/>
  </g>
  <g transform="translate(145, 95)">
    <rect x="-6" y="-10" width="12" height="10" fill="#b2bec3" stroke="#2d3436" stroke-width="1.5"/>
    <circle cx="0" cy="-10" r="5" fill="#dfe6e9" stroke="#2d3436"/>
    <line x1="0" y1="-10" x2="0" y2="-18" stroke="#b2bec3" stroke-width="3"/>
  </g>
  <g transform="translate(305, 95)">
    <rect x="-6" y="-10" width="12" height="10" fill="#b2bec3" stroke="#2d3436" stroke-width="1.5"/>
    <circle cx="0" cy="-10" r="5" fill="#dfe6e9" stroke="#2d3436"/>
    <line x1="0" y1="-10" x2="0" y2="-18" stroke="#b2bec3" stroke-width="3"/>
  </g>
  <path d="M 80 180 L 95 195 L 90 205 M 240 120 L 250 135 L 245 145" stroke="#2f3542" stroke-width="1.5" fill="none"/>
  <polygon points="98,185 143,99 307,99 262,185" fill="none" stroke="#2ed573" stroke-width="2" stroke-dasharray="4 2"/>
  <text x="200" y="270" text-anchor="middle" fill="#ced6e0" font-family="Arial" font-size="12">Foundation Detail: Anchor Bolts &amp; Epoxy Grouting</text>
</svg>