<svg width="400" height="300" viewBox="0 0 400 300" xmlns="http://www.w3.org/2000/svg">
  <rect width="100%" height="100%" fill="#2c3e50"/>
  <rect x="60" y="40" width="280" height="220" fill="#34495e" stroke="#bdc3c7" stroke-width="4"/>
  <line x1="60" y1="40" x2="60" y2="260" stroke="#7f8c8d" stroke-width="6"/>
  <rect x="310" y="130" width="15" height="40" rx="3" fill="#7f8c8d" stroke="#95a5a6" stroke-width="2"/>
  <circle cx="100" cy="70" r="10" fill="#e74c3c" stroke="#2c3e50" stroke-width="2"/>
  <circle cx="130" cy="70" r="10" fill="#f1c40f" stroke="#2c3e50" stroke-width="2"/>
  <circle cx="160" cy="70" r="10" fill="#2ecc71" stroke="#2c3e50" stroke-width="2"/>
  <circle cx="230" cy="70" r="10" fill="#2ecc71" fill-opacity="0.4" stroke="#2c3e50" stroke-width="2"/>
  <circle cx="260" cy="70" r="10" fill="#e74c3c" fill-opacity="0.4" stroke="#2c3e50" stroke-width="2"/>
  <circle cx="290" cy="70" r="10" fill="#f39c12" fill-opacity="0.4" stroke="#2c3e50" stroke-width="2"/>
  <rect x="100" y="100" width="200" height="25" fill="#dfe6e9" stroke="#2d3436" stroke-width="1"/>
  <text x="200" y="117" text-anchor="middle" font-family="Arial" font-size="10" font-weight="bold" fill="#2d3436">FEEDER: M-101 (RAW COAL CONVEYOR)</text>
  <g transform="translate(180, 140)">
    <circle cx="20" cy="20" r="25" fill="#2d3436" stroke="#7f8c8d" stroke-width="3"/>
    <rect x="15" y="-5" width="10" height="35" rx="3" fill="#e74c3c" stroke="#c0392b" stroke-width="1" transform="rotate(90, 20, 20)"/>
    <text x="20" y="-12" text-anchor="middle" fill="#bdc3c7" font-family="Arial" font-size="10" font-weight="bold">ON</text>
    <text x="52" y="24" text-anchor="left" fill="#bdc3c7" font-family="Arial" font-size="10" font-weight="bold">OFF</text>
  </g>
  <rect x="100" y="200" width="110" height="40" fill="#1e272e" stroke="#7f8c8d" stroke-width="2"/>
  <text x="105" y="215" font-family="Consolas, monospace" font-size="10" fill="#0be881">I_A: 188.4 A</text>
  <text x="105" y="230" font-family="Consolas, monospace" font-size="10" fill="#0be881">F_Hz: 50.02</text>
  <circle cx="260" cy="220" r="12" fill="#27ae60" stroke="#2ecc71" stroke-width="2"/>
  <text x="260" y="238" text-anchor="middle" font-family="Arial" font-size="8" fill="#bdc3c7">START</text>
  <circle cx="300" cy="220" r="12" fill="#c0392b" stroke="#e74c3c" stroke-width="2"/>
  <text x="300" y="238" text-anchor="middle" font-family="Arial" font-size="8" fill="#bdc3c7">STOP</text>
  <text x="200" y="285" text-anchor="middle" fill="#bdc3c7" font-family="Arial" font-size="10">Mock Photograph: Electrical MCC Panel Feeder Compartment</text>
</svg>